<?xml version="1.0" encoding="UTF-8"?>
<svg width="333px" height="277px" viewBox="0 0 333 277" version="1.1" xmlns="http://www.w3.org/2000/svg" xmlns:xlink="http://www.w3.org/1999/xlink">
    <!-- Generator: Sketch 57.1 (83088) - https://sketch.com -->
    <title>Slice</title>
    <desc>Created with Sketch.</desc>
    <g id="Page-1" stroke="none" stroke-width="1" fill="none" fill-rule="evenodd" opacity="0.701218378">
        <g id="newRedCarpet" transform="translate(10.000000, 70.000000)">
            <g id="ropeL" fill="#000000" fill-opacity="0.85" stroke="#000000" stroke-opacity="0.85">
                <path d="M61.1185567,16.6061947 L61.1185567,89.9424779 L67.309173,89.9424779 L67.309173,16.6061947 L61.1185567,16.6061947 Z" id="Rectangle"></path>
                <path d="M114.68218,43.8611666 C116.822571,43.8611666 118.544345,43.1745637 118.544345,42.619469 C118.544345,42.0664954 116.825489,41.3849558 114.68218,41.3849558 C112.615685,41.3849558 111.279131,42.004779 111.279131,42.619469 C111.279131,43.2365473 112.618363,43.8611666 114.68218,43.8611666 Z" id="Oval"></path>
                <ellipse id="Oval" cx="64.3298969" cy="91.0619469" rx="10.6340206" ry="3.83628319"></ellipse>
                <path d="M92.6604722,14.1283186 L92.6604722,60.2306444 L95.4548749,60.2306444 L95.4548749,14.1283186 L92.6604722,14.1283186 Z" id="Rectangle"></path>
                <rect id="Rectangle" x="14.1082474" y="16.6061947" width="7.98824416" height="115.460177"></rect>
                <path d="M113.6914,12.8893805 L113.6914,40.3849558 L115.672959,40.3849558 L115.672959,12.8893805 L113.6914,12.8893805 Z" id="Rectangle"></path>
                <path d="M17.9381443,14.3672566 C21.2949005,14.3672566 23.7169077,11.4052167 23.7169077,7.43362832 C23.7169077,3.46203996 21.2949005,0.5 17.9381443,0.5 C14.5884504,0.5 12.1913519,3.45303526 12.1913519,7.43362832 C12.1913519,11.4142214 14.5884504,14.3672566 17.9381443,14.3672566 Z" id="Oval"></path>
                <path d="M64.3298969,14.3672566 C66.6295129,14.3672566 68.1600699,12.2830958 68.1600699,9.2920354 C68.1600699,6.30097496 66.6295129,4.21681416 64.3298969,4.21681416 C62.0160061,4.21681416 60.4394586,6.32081635 60.4394586,9.2920354 C60.4394586,12.2632544 62.0160061,14.3672566 64.3298969,14.3672566 Z" id="Oval"></path>
                <path d="M94.0206186,12.6275583 C95.0673141,12.6275583 95.9224596,11.5204193 95.9224596,10.0472117 C95.9224596,8.54618625 95.013153,7.30441817 93.9909424,7.30441817 C92.9687319,7.30441817 92.0594253,8.54618625 92.0594253,10.0472117 C92.0594253,11.5031011 92.9579418,12.6275583 94.0206186,12.6275583 Z" id="Oval"></path>
                <path d="M114.587973,11.2426562 C115.263637,11.2426562 115.672959,10.5637113 115.672959,9.34111322 C115.672959,8.11851514 115.263637,7.43957027 114.587973,7.43957027 C113.872148,7.43957027 113.379565,8.17003141 113.379565,9.34111322 C113.379565,10.512195 113.872148,11.2426562 114.587973,11.2426562 Z" id="Oval"></path>
                <ellipse id="Oval" cx="17.9381443" cy="133.185841" rx="17.4381443" ry="6.31415929"></ellipse>
                <ellipse id="Oval" cx="94.0206186" cy="61.9469027" rx="5.68556701" ry="1.97787611"></ellipse>
                <path d="M26.2215399,19.7672203 L27.9778521,22.4933148 L31.034458,26.0865488 C31.0591271,26.1155488 31.0854186,26.1431004 31.1132499,26.1691116 C35.0781178,29.8756292 38.7302911,31.7123894 42.0618557,31.7123894 C48.3456037,31.7123894 51.1272398,30.9023909 54.1823381,27.5585373 C56.0946537,25.4654775 56.6960325,24.7019948 57.0963762,23.9567767 C57.1250021,23.9032161 57.1250021,23.9032161 57.1537805,23.8484888 C57.3041417,23.5573788 57.3935236,23.3870736 57.5044223,23.1895284 C57.6724535,22.8902123 57.8658203,22.5744422 58.1138435,22.2001774 C58.6196255,21.436957 59.0455496,20.6165065 59.3917323,19.7382671 C59.5497735,19.3373065 59.4238437,18.8801548 59.0827739,18.6166824 C58.6594807,18.2896934 58.0512568,18.3677633 57.7242677,18.7910565 C57.6771914,18.8519977 57.1691957,19.6264857 57.0502218,19.803546 C56.5982242,20.4762212 56.1622081,21.0812105 55.6981791,21.6597346 C55.5908839,21.7935041 55.4834926,21.9239643 55.3759552,22.0510096 C54.0935521,23.5660485 52.0712245,25.5634719 51.5883512,25.8927074 C48.3570436,28.0958963 45.3052276,28.9400269 42.6852934,28.9029713 C42.3230147,28.8978473 41.9564273,28.8672168 41.5857522,28.811817 C38.6419404,28.3718451 35.5722583,26.436085 32.3432372,23.3993159 C30.6278344,21.7860462 27.3597342,18.1528599 27.3109782,18.1188552 C27.0699756,17.9507691 26.7610506,17.9138596 26.4872321,18.0204362 C26.0336883,18.196966 25.8091347,18.7077313 25.9856906,19.161272 L26.2215399,19.7672203 Z" id="Rectangle"></path>
                <path d="M89.1837579,17.8030471 C89.183784,17.8030177 89.1838106,17.8029876 89.1838377,17.8029569 C89.1838116,17.8029864 89.1837855,17.8030159 89.1837595,17.8030453 Z M89.1837595,17.8030453 C89.1564183,17.833932 89.1563922,17.8339615 89.1290171,17.8649134 C88.7959788,18.2415524 88.5252509,18.5523992 88.3121647,18.8041405 C87.4781761,19.7894197 86.1679738,21.0834873 85.8413888,21.3061615 C83.7323737,22.7441424 81.734272,23.2968162 80.01444,23.2724914 C77.9496766,23.243288 75.9813397,21.9925155 73.6712729,19.6891069 C73.1162853,19.1357189 71.5341293,17.4471939 71.410741,17.3209417 C70.8035446,16.6996524 70.4117823,16.3971143 70.316594,16.3971143 C70.2293962,16.3971143 70.1431002,16.4147601 70.0629016,16.4489893 C69.7346239,16.5890999 69.5820822,16.9688062 69.7221875,17.2970837 L69.8392877,17.5957658 L70.6974404,18.8574606 L72.6426734,21.1442053 C72.667625,21.1735375 72.6942185,21.2013669 72.7224271,21.2276532 C75.2323516,23.5678965 77.5328446,24.7216121 79.6161523,24.7216121 C83.6107709,24.7216121 85.3535042,24.2141369 87.2766852,22.1091848 C88.4968293,20.7737178 88.8761111,20.2921991 89.1246695,19.8295211 C89.1425693,19.7960299 89.1425693,19.7960299 89.1607327,19.7614892 C89.4499398,19.2099014 89.5043922,19.1129046 89.7872614,18.6860575 C90.2540107,17.9817371 90.6129635,17.199412 90.8641976,16.3373438 C90.8815749,16.2777287 90.8606837,16.2135533 90.8115423,16.1755921 C90.7455466,16.1246112 90.6507183,16.1367831 90.5997374,16.2027788 C90.523861,16.3010022 89.1408846,17.8514838 89.1837579,17.8030471 Z" id="Rectangle"></path>
                <path d="M98.0516685,14.1156781 C98.0133137,14.1156781 97.9753555,14.1234398 97.9400794,14.1384958 C97.7956787,14.2001268 97.7285712,14.3671638 97.790182,14.5115517 L97.8554854,14.6888745 L98.4325149,15.5388722 L99.745526,17.0824 C99.7708566,17.1121777 99.7979106,17.1404432 99.8265521,17.1670541 C101.509022,18.7302712 103.040859,19.4955977 104.414524,19.4955977 C107.107669,19.4955977 108.259739,19.1601207 109.539373,17.7595403 C110.365987,16.854799 110.618996,16.5335897 110.781258,16.2315486 C110.793059,16.2094677 110.793059,16.2094677 110.805188,16.1864041 C111.00545,15.8044558 111.044712,15.7345173 111.242087,15.4366804 C111.628499,14.8535887 111.904328,14.1891234 112.069375,13.4401477 C112.070073,13.4369813 112.068881,13.4336965 112.066315,13.4317144 C112.062653,13.4288856 112.057392,13.429561 112.054563,13.4332229 C112.051098,13.4377087 111.499403,14.2897263 111.245756,14.6651819 C111.181495,14.7600567 111.181495,14.7600567 111.116722,14.85458 C110.866872,15.2180056 110.655966,15.504662 110.484945,15.7067076 C109.9059,16.3907945 109.000573,17.2849724 108.762845,17.4470616 C107.291904,18.4499871 105.892887,18.8369545 104.684804,18.8198677 C103.218723,18.7991319 101.843128,17.9250152 100.235488,16.3220088 C99.8534233,15.9410454 98.7699387,14.7847177 98.6873735,14.7002362 C98.3085324,14.3126022 98.0535317,14.1156781 98.0516685,14.1156781 Z" id="Rectangle"></path>
                <ellipse id="Oval" cx="17.9381443" cy="133.185841" rx="17.4381443" ry="6.31415929"></ellipse>
            </g>
            <g id="ropeR" transform="translate(253.000000, 70.000000) scale(-1, 1) translate(-253.000000, -70.000000) translate(193.000000, 0.000000)" fill="#000000" stroke="#000000" stroke-opacity="0.85">
                <path d="M61.1185567,16.6061947 L61.1185567,89.9424779 L67.309173,89.9424779 L67.309173,16.6061947 L61.1185567,16.6061947 Z" id="Rectangle" fill-opacity="0.85"></path>
                <path d="M114.68218,43.8611666 C116.822571,43.8611666 118.544345,43.1745637 118.544345,42.619469 C118.544345,42.0664954 116.825489,41.3849558 114.68218,41.3849558 C112.615685,41.3849558 111.279131,42.004779 111.279131,42.619469 C111.279131,43.2365473 112.618363,43.8611666 114.68218,43.8611666 Z" id="Oval" fill-opacity="0.85"></path>
                <ellipse id="Oval" fill-opacity="0.85" cx="64.3298969" cy="91.0619469" rx="10.6340206" ry="3.83628319"></ellipse>
                <path d="M92.6604722,14.1283186 L92.6604722,60.2306444 L95.4548749,60.2306444 L95.4548749,14.1283186 L92.6604722,14.1283186 Z" id="Rectangle" fill-opacity="0.85"></path>
                <rect id="Rectangle" fill-opacity="0.85" x="14.1082474" y="16.6061947" width="7.98824416" height="115.460177"></rect>
                <path d="M113.6914,12.8893805 L113.6914,40.3849558 L115.672959,40.3849558 L115.672959,12.8893805 L113.6914,12.8893805 Z" id="Rectangle" fill-opacity="0.85"></path>
                <path d="M17.9381443,14.3672566 C21.2949005,14.3672566 23.7169077,11.4052167 23.7169077,7.43362832 C23.7169077,3.46203996 21.2949005,0.5 17.9381443,0.5 C14.5884504,0.5 12.1913519,3.45303526 12.1913519,7.43362832 C12.1913519,11.4142214 14.5884504,14.3672566 17.9381443,14.3672566 Z" id="Oval"></path>
                <path d="M64.3298969,14.3672566 C66.6295129,14.3672566 68.1600699,12.2830958 68.1600699,9.2920354 C68.1600699,6.30097496 66.6295129,4.21681416 64.3298969,4.21681416 C62.0160061,4.21681416 60.4394586,6.32081635 60.4394586,9.2920354 C60.4394586,12.2632544 62.0160061,14.3672566 64.3298969,14.3672566 Z" id="Oval"></path>
                <path d="M94.0206186,12.6275583 C95.0673141,12.6275583 95.9224596,11.5204193 95.9224596,10.0472117 C95.9224596,8.54618625 95.013153,7.30441817 93.9909424,7.30441817 C92.9687319,7.30441817 92.0594253,8.54618625 92.0594253,10.0472117 C92.0594253,11.5031011 92.9579418,12.6275583 94.0206186,12.6275583 Z" id="Oval"></path>
                <path d="M114.587973,11.2426562 C115.263637,11.2426562 115.672959,10.5637113 115.672959,9.34111322 C115.672959,8.11851514 115.263637,7.43957027 114.587973,7.43957027 C113.872148,7.43957027 113.379565,8.17003141 113.379565,9.34111322 C113.379565,10.512195 113.872148,11.2426562 114.587973,11.2426562 Z" id="Oval"></path>
                <ellipse id="Oval" cx="17.9381443" cy="133.185841" rx="17.4381443" ry="6.31415929"></ellipse>
                <ellipse id="Oval" cx="94.0206186" cy="61.9469027" rx="5.68556701" ry="1.97787611"></ellipse>
                <path d="M25.6870415,19.6173077 L27.9778521,22.4933148 L31.034458,26.0865488 C31.0591271,26.1155488 31.0854186,26.1431004 31.1132499,26.1691116 C35.0781178,29.8756292 38.7302911,31.7123894 42.0618557,31.7123894 C48.3456037,31.7123894 51.1272398,30.9023909 54.1823381,27.5585373 C56.0946537,25.4654775 56.6960325,24.7019948 57.0963762,23.9567767 C57.1250021,23.9032161 57.1250021,23.9032161 57.1537805,23.8484888 C57.3041417,23.5573788 57.3935236,23.3870736 57.5044223,23.1895284 C57.6724535,22.8902123 57.8658203,22.5744422 58.1138435,22.2001774 C58.6196255,21.436957 59.0455496,20.6165065 59.3917323,19.7382671 C59.5497735,19.3373065 59.4238437,18.8801548 59.0827739,18.6166824 C58.6594807,18.2896934 58.0512568,18.3677633 57.7242677,18.7910565 C57.6771914,18.8519977 57.1691957,19.6264857 57.0502218,19.803546 C56.5982242,20.4762212 56.1622081,21.0812105 55.6981791,21.6597346 C55.5908839,21.7935041 55.4834926,21.9239643 55.3759552,22.0510096 C54.0935521,23.5660485 52.0712245,25.5634719 51.5883512,25.8927074 C48.3570436,28.0958963 45.3052276,28.9400269 42.6852934,28.9029713 C41.7868934,28.8902646 40.854399,28.7163294 39.8904434,28.39332 C37.3861505,27.5541631 34.759137,25.7601723 31.9789405,23.2198732 C30.1877058,21.5832005 26.6490963,17.8148704 26.5659664,17.7581486 C26.3402336,17.6041251 26.0527235,17.5723291 25.7987899,17.6733058 C25.3768624,17.8410855 25.1708319,18.3191405 25.3386048,18.7410687 L25.6870415,19.6173077 Z" id="Rectangle" fill-opacity="0.85"></path>
                <path d="M89.1837579,17.8030471 C89.183784,17.8030177 89.1838106,17.8029876 89.1838377,17.8029569 C89.1838116,17.8029864 89.1837855,17.8030159 89.1837595,17.8030453 Z M89.1837595,17.8030453 C89.1564183,17.833932 89.1563922,17.8339615 89.1290171,17.8649134 C88.7959788,18.2415524 88.5252509,18.5523992 88.3121647,18.8041405 C87.4781761,19.7894197 86.1679738,21.0834873 85.8413888,21.3061615 C83.7323737,22.7441424 81.734272,23.2968162 80.01444,23.2724914 C77.9496766,23.243288 75.9813397,21.9925155 73.6712729,19.6891069 C73.1162853,19.1357189 71.5341293,17.4471939 71.410741,17.3209417 C70.8035446,16.6996524 70.4117823,16.3971143 70.316594,16.3971143 C70.2293962,16.3971143 70.1431002,16.4147601 70.0629016,16.4489893 C69.7346239,16.5890999 69.5820822,16.9688062 69.7221875,17.2970837 L69.8392877,17.5957658 L70.6974404,18.8574606 L72.6426734,21.1442053 C72.667625,21.1735375 72.6942185,21.2013669 72.7224271,21.2276532 C75.2323516,23.5678965 77.5328446,24.7216121 79.6161523,24.7216121 C83.6107709,24.7216121 85.3535042,24.2141369 87.2766852,22.1091848 C88.4968293,20.7737178 88.8761111,20.2921991 89.1246695,19.8295211 C89.1425693,19.7960299 89.1425693,19.7960299 89.1607327,19.7614892 C89.4499398,19.2099014 89.5043922,19.1129046 89.7872614,18.6860575 C90.2540107,17.9817371 90.6129635,17.199412 90.8641976,16.3373438 C90.8815749,16.2777287 90.8606837,16.2135533 90.8115423,16.1755921 C90.7455466,16.1246112 90.6507183,16.1367831 90.5997374,16.2027788 C90.523861,16.3010022 89.1408846,17.8514838 89.1837579,17.8030471 Z" id="Rectangle" fill-opacity="0.85"></path>
                <path d="M98.0516685,14.1156781 C98.0133137,14.1156781 97.9753555,14.1234398 97.9400794,14.1384958 C97.7956787,14.2001268 97.7285712,14.3671638 97.790182,14.5115517 L97.8554854,14.6888745 L98.4325149,15.5388722 L99.745526,17.0824 C99.7708566,17.1121777 99.7979106,17.1404432 99.8265521,17.1670541 C101.509022,18.7302712 103.040859,19.4955977 104.414524,19.4955977 C107.107669,19.4955977 108.259739,19.1601207 109.539373,17.7595403 C110.365987,16.854799 110.618996,16.5335897 110.781258,16.2315486 C110.793059,16.2094677 110.793059,16.2094677 110.805188,16.1864041 C111.00545,15.8044558 111.044712,15.7345173 111.242087,15.4366804 C111.628499,14.8535887 111.904328,14.1891234 112.069375,13.4401477 C112.070073,13.4369813 112.068881,13.4336965 112.066315,13.4317144 C112.062653,13.4288856 112.057392,13.429561 112.054563,13.4332229 C112.051098,13.4377087 111.499403,14.2897263 111.245756,14.6651819 C111.181495,14.7600567 111.181495,14.7600567 111.116722,14.85458 C110.866872,15.2180056 110.655966,15.504662 110.484945,15.7067076 C109.9059,16.3907945 109.000573,17.2849724 108.762845,17.4470616 C107.291904,18.4499871 105.892887,18.8369545 104.684804,18.8198677 C103.218723,18.7991319 101.843128,17.9250152 100.235488,16.3220088 C99.8534233,15.9410454 98.7699387,14.7847177 98.6873735,14.7002362 C98.3085324,14.3126022 98.0535317,14.1156781 98.0516685,14.1156781 Z" id="Rectangle" fill-opacity="0.85"></path>
            </g>
            <g id="carpet" transform="translate(16.000000, 32.000000)">
                <path d="M121.392151,3.42379844 L3.04828718,157.105968 L281.347561,157.105968 L160.175669,3.42379844 L121.392151,3.42379844 Z" id="orig" stroke-opacity="0.85" stroke="#000000" stroke-width="3" fill="#FFFFFF"></path>
                <path d="M121.154667,2.92379844 L5.87689877,156.953116 L278.695714,157.60115 L160.40899,2.92379844 L121.154667,2.92379844 Z" id="over" stroke-opacity="0.85" stroke="#000000" stroke-width="2" fill="#FFFFFF"></path>
                <polygon id="Rectangle" fill="#FFFFFF" points="124.722331 0.257718394 156.538198 0.257718394 160.14756 5.01738672 121.468435 5.01738672"></polygon>
                <polygon id="Rectangle" fill="#FFFFFF" points="9.89859805 154.0721 274.763845 154.896765 279.55566 161 4.35398883 161"></polygon>
                <path d="M153.882726,2.04879844 L267.278263,158.480968 L271.500791,158.480968 L154.636529,2.04879844 L153.882726,2.04879844 Z" id="Rectangle" stroke-opacity="0.85" stroke="#000000" stroke-width="0.25" fill-opacity="0.85" fill="#000000"></path>
                <path d="M13.8099675,2.04879844 L123.618362,158.480968 L127.766324,158.480968 L14.5671079,2.04879844 L13.8099675,2.04879844 Z" id="Rectangle" stroke-opacity="0.85" stroke="#000000" stroke-width="0.25" fill-opacity="0.85" fill="#000000" transform="translate(70.790287, 80.264883) scale(-1, 1) translate(-70.790287, -80.264883) "></path>
            </g>
        </g>
    </g>
</svg>