<?xml version="1.0" standalone="no"?>
<!DOCTYPE svg PUBLIC "-//W3C//DTD SVG 20010904//EN"
 "http://www.w3.org/TR/2001/REC-SVG-20010904/DTD/svg10.dtd">
<svg version="1.0" xmlns="http://www.w3.org/2000/svg"
 width="945.000000pt" height="79.000000pt" viewBox="0 0 945.000000 79.000000"
 preserveAspectRatio="xMidYMid meet">
<metadata>
Created by potrace 1.15, written by Peter Selinger 2001-2017
</metadata>
<g transform="translate(0.000000,79.000000) scale(0.100000,-0.100000)"
fill="#000000" stroke="none">
<path d="M6503 735 c-54 -23 -73 -66 -73 -167 l0 -88 -50 0 -50 0 0 -34 c0
-34 1 -35 48 -38 l47 -3 3 -182 2 -183 40 0 40 0 0 185 0 185 50 0 50 0 0 35
0 35 -50 0 -50 0 0 75 c0 68 3 79 26 102 20 20 32 24 59 20 31 -5 33 -4 37 29
2 19 2 37 -1 39 -10 10 -98 3 -128 -10z"/>
<path d="M6793 735 c-54 -23 -73 -66 -73 -167 l0 -88 -50 0 -50 0 0 -34 c0
-34 1 -35 48 -38 l47 -3 3 -182 2 -183 40 0 40 0 0 185 0 185 50 0 50 0 0 35
0 35 -50 0 -50 0 0 75 c0 68 3 79 26 102 20 20 32 24 59 20 31 -5 33 -4 37 29
2 19 2 37 -1 39 -10 10 -98 3 -128 -10z"/>
<path d="M780 390 l0 -350 45 0 45 0 0 143 c0 124 3 146 20 175 46 75 162 69
189 -10 6 -17 11 -93 11 -169 l0 -139 40 0 40 0 0 163 c0 139 -3 168 -20 205
-40 88 -177 109 -254 37 l-26 -24 0 159 0 160 -45 0 -45 0 0 -350z"/>
<path d="M3450 390 l0 -350 45 0 c43 0 45 1 45 30 l0 30 21 -21 c71 -71 207
-64 285 15 51 50 68 106 61 195 -6 83 -41 136 -116 174 -81 40 -173 32 -226
-21 l-25 -25 0 162 0 161 -45 0 -45 0 0 -350z m295 6 c99 -42 103 -221 6 -271
-66 -34 -155 -11 -191 48 -27 44 -27 131 0 175 35 57 114 77 185 48z"/>
<path d="M4010 390 l0 -350 45 0 c43 0 45 1 45 30 l0 30 21 -21 c71 -71 207
-64 285 15 51 50 68 106 61 195 -6 83 -41 136 -116 174 -81 40 -173 32 -226
-21 l-25 -25 0 162 0 161 -45 0 -45 0 0 -350z m295 6 c99 -42 103 -221 6 -271
-66 -34 -155 -11 -191 48 -27 44 -27 131 0 175 35 57 114 77 185 48z"/>
<path d="M1550 540 l0 -60 -50 0 -50 0 0 -34 c0 -34 1 -35 48 -38 l47 -3 2
-145 c2 -80 5 -155 8 -168 8 -33 62 -62 117 -62 68 0 78 6 78 49 l0 37 -40 -4
c-29 -3 -47 1 -60 13 -18 16 -20 32 -20 152 l0 133 60 0 60 0 0 35 0 35 -60 0
-60 0 0 60 0 60 -40 0 -40 0 0 -60z"/>
<path d="M4840 540 l0 -60 -50 0 -50 0 0 -34 c0 -34 1 -35 48 -38 l47 -3 2
-145 c2 -80 5 -155 8 -168 8 -33 62 -62 117 -62 68 0 78 6 78 49 l0 37 -40 -4
c-29 -3 -47 1 -60 13 -18 16 -20 32 -20 152 l0 133 60 0 60 0 0 35 0 35 -60 0
-60 0 0 60 0 60 -40 0 -40 0 0 -60z"/>
<path d="M1986 480 c-158 -48 -211 -268 -92 -386 44 -44 93 -64 162 -64 58 0
126 26 160 61 l29 30 -25 19 c-31 24 -44 25 -61 4 -19 -23 -64 -44 -94 -44
-64 0 -144 59 -145 108 0 22 0 22 176 22 l177 0 -7 53 c-20 153 -141 238 -280
197z m135 -77 c25 -15 35 -31 53 -85 5 -17 -5 -18 -124 -18 -142 0 -148 3
-113 57 39 59 125 81 184 46z"/>
<path d="M2782 469 c-24 -12 -47 -29 -50 -38 -5 -11 -8 -7 -12 14 -5 27 -9 30
-48 33 l-42 3 0 -220 0 -221 44 0 45 0 3 150 c3 147 4 150 30 176 19 20 40 28
76 32 49 4 50 5 55 41 2 20 2 39 0 44 -8 14 -58 7 -101 -14z"/>
<path d="M3068 476 c-45 -16 -88 -43 -88 -55 0 -4 9 -16 20 -26 20 -18 22 -18
64 3 90 45 185 15 186 -59 0 -26 -1 -26 -88 -31 -133 -8 -195 -47 -209 -131
-20 -124 157 -196 267 -108 l40 32 0 -31 c0 -28 3 -30 35 -30 l35 0 1 103 c2
250 -4 279 -65 317 -47 28 -145 36 -198 16z m182 -267 c0 -33 -6 -47 -34 -75
-29 -29 -41 -34 -83 -34 -63 0 -93 20 -93 64 0 57 48 83 158 85 l52 1 0 -41z"/>
<path d="M5536 476 c-52 -19 -86 -45 -114 -86 -71 -105 -43 -260 60 -323 84
-52 220 -45 274 14 17 19 17 21 -8 45 l-25 26 -34 -21 c-42 -26 -110 -27 -150
-4 -35 21 -69 86 -69 131 0 118 120 191 212 129 l36 -25 27 28 c32 33 28 43
-27 71 -53 27 -132 33 -182 15z"/>
<path d="M5973 474 c-153 -55 -200 -271 -81 -381 128 -120 344 -57 387 113 45
177 -131 330 -306 268z m158 -87 c84 -56 91 -176 16 -246 -36 -33 -117 -41
-163 -16 -39 21 -74 85 -74 136 0 79 68 149 145 149 27 0 54 -8 76 -23z"/>
<path d="M7126 480 c-158 -48 -211 -268 -92 -386 44 -44 93 -64 162 -64 58 0
126 26 160 61 l29 30 -25 19 c-31 24 -44 25 -61 4 -19 -23 -64 -44 -94 -44
-64 0 -144 59 -145 108 0 22 0 22 176 22 l177 0 -7 53 c-20 153 -141 238 -280
197z m135 -77 c25 -15 35 -31 53 -85 5 -17 -5 -18 -124 -18 -142 0 -148 3
-113 57 39 59 125 81 184 46z"/>
<path d="M7636 480 c-158 -48 -211 -268 -92 -386 44 -44 93 -64 162 -64 58 0
126 26 160 61 l29 30 -25 19 c-31 24 -44 25 -61 4 -19 -23 -64 -44 -94 -44
-64 0 -144 59 -145 108 0 22 0 22 176 22 l177 0 -7 53 c-20 153 -141 238 -280
197z m135 -77 c25 -15 35 -31 53 -85 5 -17 -5 -18 -124 -18 -142 0 -148 3
-113 57 39 59 125 81 184 46z"/>
<path d="M8416 476 c-52 -19 -86 -45 -114 -86 -71 -105 -43 -260 60 -323 84
-52 220 -45 274 14 17 19 17 21 -8 45 l-25 26 -34 -21 c-42 -26 -110 -27 -150
-4 -35 21 -69 86 -69 131 0 118 120 191 212 129 l36 -25 27 28 c32 33 28 43
-27 71 -53 27 -132 33 -182 15z"/>
<path d="M8853 474 c-153 -55 -200 -271 -81 -381 128 -120 344 -57 387 113 45
177 -131 330 -306 268z m158 -87 c84 -56 91 -176 16 -246 -36 -33 -117 -41
-163 -16 -39 21 -74 85 -74 136 0 79 68 149 145 149 27 0 54 -8 76 -23z"/>
<path d="M32 468 c3 -7 36 -106 74 -220 l69 -208 45 0 45 0 50 159 c28 87 53
157 56 155 4 -2 31 -73 60 -159 l54 -155 42 0 42 0 64 198 c36 108 67 207 71
220 7 20 4 22 -36 22 l-44 0 -43 -152 c-24 -84 -46 -156 -50 -160 -3 -4 -31
65 -61 153 l-55 160 -44 -3 -44 -3 -49 -155 c-27 -85 -51 -156 -53 -158 -2 -2
-20 49 -40 114 -68 223 -55 199 -110 202 -36 2 -46 0 -43 -10z"/>
<path d="M1300 260 l0 -220 40 0 40 0 0 220 0 220 -40 0 -40 0 0 -220z"/>
<path d="M4590 260 l0 -220 40 0 40 0 0 220 0 220 -40 0 -40 0 0 -220z"/>
</g>
</svg>
